<svg xmlns="http://www.w3.org/2000/svg" xmlns:xlink="http://www.w3.org/1999/xlink" width="273.176" height="18.056" viewBox="0 0 273.176 18.056">
  <defs>
    <linearGradient id="linear-gradient" x1="0.5" y1="-1.447" x2="0.5" y2="2.398" gradientUnits="objectBoundingBox">
      <stop offset="0" stop-color="#eac58a"/>
      <stop offset="0.479" stop-color="#dcb77e"/>
      <stop offset="0.799" stop-color="#9b7649"/>
    </linearGradient>
    <linearGradient id="linear-gradient-3" x1="0.5" y1="-1.465" x2="0.5" y2="2.408" xlink:href="#linear-gradient"/>
  </defs>
  <g id="Group_3115" data-name="Group 3115" transform="translate(-10061 134.5)">
    <g id="Group_3110" data-name="Group 3110" transform="translate(10213.47 -133.741)">
      <g id="Group_3109" data-name="Group 3109" transform="translate(0 0)">
        <path id="Path_12913" data-name="Path 12913" d="M364.2-143.861a4,4,0,0,1,.882,2.565,4.133,4.133,0,0,1-1.423,3.341,6.171,6.171,0,0,1-4.082,1.2h-7.739v-16.632h7.551a6.167,6.167,0,0,1,3.928,1.106,3.794,3.794,0,0,1,1.388,3.152,3.888,3.888,0,0,1-.8,2.506,3.689,3.689,0,0,1-2.094,1.305A4.167,4.167,0,0,1,364.2-143.861Zm-8.34-2.729h2.636q2.093,0,2.094-1.788t-2.141-1.788h-2.588Zm5.106,4.728a1.752,1.752,0,0,0-.588-1.4,2.489,2.489,0,0,0-1.67-.505h-2.847v3.74h2.87Q360.96-140.027,360.961-141.862Z" transform="translate(-351.833 153.389)" fill="#fff"/>
        <path id="Path_12914" data-name="Path 12914" d="M376.827-150.189v3.482h5.623v3.035h-5.623v3.693h6.329v3.223H372.8v-16.632h10.351v3.2Z" transform="translate(-357.443 153.389)" fill="#fff"/>
        <path id="Path_12915" data-name="Path 12915" d="M399.916-139.748h-6.234l-1.035,3.035h-4.235l6.093-16.514h4.635l6.093,16.514h-4.282Zm-1.035-3.057-2.07-6.117-2.094,6.117Z" transform="translate(-361.618 153.346)" fill="#fff"/>
        <path id="Path_12916" data-name="Path 12916" d="M417.366-153.389v9.6a3.783,3.783,0,0,0,.741,2.517,2.671,2.671,0,0,0,2.152.87,2.672,2.672,0,0,0,2.154-.87,3.783,3.783,0,0,0,.741-2.517v-9.6h4.021v9.6a7.9,7.9,0,0,1-.916,3.964,5.966,5.966,0,0,1-2.506,2.423,7.767,7.767,0,0,1-3.588.812,7.5,7.5,0,0,1-3.529-.8,5.668,5.668,0,0,1-2.4-2.423,8.322,8.322,0,0,1-.87-3.975v-9.6Z" transform="translate(-368.293 153.389)" fill="#fff"/>
        <path id="Path_12917" data-name="Path 12917" d="M447.436-153.389v3.2h-4.517v13.433h-4.046v-13.433H434.4v-3.2Z" transform="translate(-373.92 153.389)" fill="#fff"/>
        <path id="Path_12918" data-name="Path 12918" d="M458.53-153.389v16.632h-4.023v-16.632Z" transform="translate(-379.298 153.389)" fill="#fff"/>
        <path id="Path_12919" data-name="Path 12919" d="M474.632-153.389v3.2H467.81v3.646h5.27v3.058h-5.27v6.728h-4.023v-16.632Z" transform="translate(-381.78 153.389)" fill="#fff"/>
        <path id="Path_12920" data-name="Path 12920" d="M485.29-153.389v9.6a3.779,3.779,0,0,0,.741,2.517,2.669,2.669,0,0,0,2.152.87,2.672,2.672,0,0,0,2.153-.87,3.787,3.787,0,0,0,.741-2.517v-9.6H495.1v9.6a7.9,7.9,0,0,1-.917,3.964,5.966,5.966,0,0,1-2.506,2.423,7.767,7.767,0,0,1-3.588.812,7.5,7.5,0,0,1-3.528-.8,5.672,5.672,0,0,1-2.4-2.423,8.322,8.322,0,0,1-.87-3.975v-9.6Z" transform="translate(-386.462 153.389)" fill="#fff"/>
        <path id="Path_12921" data-name="Path 12921" d="M507.827-139.838h5.363v3.082H503.8v-16.632h4.023Z" transform="translate(-392.484 153.389)" fill="#fff"/>
      </g>
    </g>
    <g id="Group_3112" data-name="Group 3112" transform="translate(10144.646 -134)">
      <g id="Group_3111" data-name="Group 3111" transform="translate(0)">
        <path id="Path_12922" data-name="Path 12922" d="M270.238-143.861a3.994,3.994,0,0,1,.883,2.565,4.132,4.132,0,0,1-1.423,3.34,6.169,6.169,0,0,1-4.082,1.2h-7.74v-16.632h7.552a6.167,6.167,0,0,1,3.928,1.105,3.8,3.8,0,0,1,1.388,3.153,3.882,3.882,0,0,1-.8,2.505,3.681,3.681,0,0,1-2.093,1.305A4.167,4.167,0,0,1,270.238-143.861Zm-8.34-2.729h2.635q2.094,0,2.094-1.787t-2.141-1.788H261.9Zm5.1,4.729a1.75,1.75,0,0,0-.587-1.4,2.49,2.49,0,0,0-1.671-.506H261.9v3.741h2.87Q267-140.027,267-141.862Z" transform="translate(-257.875 153.648)" fill="none" stroke="#dd304b" stroke-miterlimit="10" stroke-width="1"/>
        <path id="Path_12923" data-name="Path 12923" d="M290.841-152.649a7.972,7.972,0,0,1,3.023,3.035,8.706,8.706,0,0,1,1.106,4.387,8.7,8.7,0,0,1-1.118,4.4,8.022,8.022,0,0,1-3.035,3.046,8.414,8.414,0,0,1-4.246,1.094,8.416,8.416,0,0,1-4.246-1.094,8.022,8.022,0,0,1-3.035-3.046,8.7,8.7,0,0,1-1.118-4.4,8.632,8.632,0,0,1,1.118-4.387,8.053,8.053,0,0,1,3.035-3.035,8.416,8.416,0,0,1,4.246-1.094A8.46,8.46,0,0,1,290.841-152.649Zm-7.41,3.928a5,5,0,0,0-1.165,3.493,5.01,5.01,0,0,0,1.165,3.482,4.014,4.014,0,0,0,3.14,1.294,4.026,4.026,0,0,0,3.129-1.294,4.981,4.981,0,0,0,1.176-3.482,5.013,5.013,0,0,0-1.164-3.482A4.017,4.017,0,0,0,286.571-150,4.033,4.033,0,0,0,283.431-148.72Z" transform="translate(-263.304 153.743)" fill="none" stroke="#dd304b" stroke-miterlimit="10" stroke-width="1"/>
        <path id="Path_12924" data-name="Path 12924" d="M308.209-139.838h5.364v3.082h-9.386v-16.632h4.022Z" transform="translate(-270.263 153.648)" fill="none" stroke="#dd304b" stroke-miterlimit="10" stroke-width="1"/>
        <path id="Path_12925" data-name="Path 12925" d="M333.453-140.768a7.337,7.337,0,0,1-3.011,2.953,9.61,9.61,0,0,1-4.624,1.058h-6.281v-16.632h6.281a9.764,9.764,0,0,1,4.635,1.035,7.217,7.217,0,0,1,3,2.917,8.755,8.755,0,0,1,1.047,4.329A8.818,8.818,0,0,1,333.453-140.768Zm-4.328-.835a4.618,4.618,0,0,0,1.305-3.505,4.619,4.619,0,0,0-1.305-3.506,5.087,5.087,0,0,0-3.658-1.247H323.56v9.5h1.906A5.084,5.084,0,0,0,329.124-141.6Z" transform="translate(-274.369 153.648)" fill="none" stroke="#dd304b" stroke-miterlimit="10" stroke-width="1"/>
      </g>
    </g>
    <g id="Group_3114" data-name="Group 3114" transform="translate(10061 -133.776)">
      <g id="Group_3113" data-name="Group 3113" transform="translate(0)">
        <path id="Path_12926" data-name="Path 12926" d="M156.047-143.909a4,4,0,0,1,.882,2.564,4.132,4.132,0,0,1-1.423,3.34,6.168,6.168,0,0,1-4.082,1.2h-7.739v-16.632h7.551a6.166,6.166,0,0,1,3.928,1.105,3.8,3.8,0,0,1,1.388,3.153,3.883,3.883,0,0,1-.8,2.505,3.681,3.681,0,0,1-2.093,1.305A4.171,4.171,0,0,1,156.047-143.909Zm-8.34-2.729h2.635q2.094,0,2.094-1.787t-2.141-1.788h-2.588Zm5.106,4.729a1.753,1.753,0,0,0-.588-1.4,2.49,2.49,0,0,0-1.671-.505h-2.847v3.74h2.87Q152.812-140.075,152.813-141.91Z" transform="translate(-143.685 153.437)" fill="url(#linear-gradient)"/>
        <path id="Path_12927" data-name="Path 12927" d="M173.2-136.8l-3.6-6.281h-.917v6.281h-4.023v-16.632h6.869a7.416,7.416,0,0,1,3.341.682,4.716,4.716,0,0,1,2.047,1.87,5.367,5.367,0,0,1,.682,2.718,4.829,4.829,0,0,1-1,3.082,5.115,5.115,0,0,1-2.905,1.741l3.952,6.54Zm-4.517-9.034h2.493a2.515,2.515,0,0,0,1.765-.529,2.043,2.043,0,0,0,.565-1.565,2.075,2.075,0,0,0-.576-1.553,2.415,2.415,0,0,0-1.753-.565h-2.493Z" transform="translate(-149.295 153.437)" fill="url(#linear-gradient)"/>
        <path id="Path_12928" data-name="Path 12928" d="M194.948-139.8h-6.234l-1.035,3.035h-4.235l6.093-16.515h4.635l6.093,16.515h-4.281Zm-1.035-3.058-2.07-6.117-2.094,6.117Z" transform="translate(-154.32 153.394)" fill="url(#linear-gradient-3)"/>
        <path id="Path_12929" data-name="Path 12929" d="M211.194-153.437l4.07,12.516,4.07-12.516h4.3L217.852-136.8h-5.2l-5.763-16.632Z" transform="translate(-160.592 153.437)" fill="url(#linear-gradient)"/>
        <path id="Path_12930" data-name="Path 12930" d="M235.9-150.238v3.482h5.622v3.034H235.9v3.694h6.328v3.223H231.875v-16.632h10.351v3.2Z" transform="translate(-167.275 153.437)" fill="url(#linear-gradient)"/>
      </g>
    </g>
  </g>
</svg>
