<svg xmlns="http://www.w3.org/2000/svg" width="42" height="42" viewBox="0 0 42 42">
  <g id="ambassadors" transform="translate(-10183 -7562)">
    <g id="corporate" transform="translate(10187 7566)">
      <circle id="Ellipse_283" data-name="Ellipse 283" cx="2.17" cy="2.17" r="2.17" transform="translate(15.19 11.574)" fill="#fff"/>
      <path id="Path_12894" data-name="Path 12894" d="M16.6,16.34a1.085,1.085,0,0,1-1.085-1.085,1.086,1.086,0,0,0-1.085-1.085h-2.17a1.086,1.086,0,0,0-1.085,1.085,1.085,1.085,0,0,1-2.17,0A3.259,3.259,0,0,1,12.255,12h2.17a3.259,3.259,0,0,1,3.255,3.255A1.085,1.085,0,0,1,16.6,16.34Z" transform="translate(4.02 5.36)" fill="#fff"/>
      <path id="Path_12895" data-name="Path 12895" d="M15.127,25.254A10.127,10.127,0,1,1,25.254,15.127,10.139,10.139,0,0,1,15.127,25.254Zm0-18.084a7.957,7.957,0,1,0,7.957,7.957A7.966,7.966,0,0,0,15.127,7.17Z" transform="translate(2.233 2.233)" fill="#fff"/>
      <path id="Path_12896" data-name="Path 12896" d="M21.984,23.069a1.076,1.076,0,0,1-.767-.318L16.168,17.7A1.085,1.085,0,1,1,17.7,16.167l5.049,5.049a1.086,1.086,0,0,1-.768,1.853Z" transform="translate(7.08 7.08)" fill="#fff"/>
      <path id="Path_12897" data-name="Path 12897" d="M9.294,10.379a1.076,1.076,0,0,1-.767-.318L3.478,5.012A1.085,1.085,0,1,1,5.013,3.477l5.049,5.049a1.086,1.086,0,0,1-.768,1.853Z" transform="translate(1.412 1.411)" fill="#fff"/>
      <path id="Path_12898" data-name="Path 12898" d="M16.935,10.379a1.086,1.086,0,0,1-.767-1.853l5.049-5.049a1.085,1.085,0,0,1,1.535,1.535L17.7,10.061a1.085,1.085,0,0,1-.768.318Z" transform="translate(7.08 1.411)" fill="#fff"/>
      <path id="Path_12899" data-name="Path 12899" d="M4.245,23.069a1.086,1.086,0,0,1-.767-1.853l5.049-5.049A1.085,1.085,0,1,1,10.062,17.7L5.013,22.751a1.08,1.08,0,0,1-.768.318Z" transform="translate(1.412 7.08)" fill="#fff"/>
      <path id="Path_12900" data-name="Path 12900" d="M3.617,26.233a3.617,3.617,0,1,1,3.617-3.617A3.621,3.621,0,0,1,3.617,26.233Zm0-5.063a1.447,1.447,0,1,0,1.447,1.447A1.448,1.448,0,0,0,3.617,21.17Z" transform="translate(0 8.487)" fill="#fff"/>
      <path id="Path_12901" data-name="Path 12901" d="M3.617,7.233A3.617,3.617,0,1,1,7.233,3.617,3.621,3.621,0,0,1,3.617,7.233Zm0-5.063A1.447,1.447,0,1,0,5.063,3.617,1.448,1.448,0,0,0,3.617,2.17Z" fill="#fff"/>
      <path id="Path_12902" data-name="Path 12902" d="M22.617,7.233a3.617,3.617,0,1,1,3.617-3.617A3.621,3.621,0,0,1,22.617,7.233Zm0-5.063a1.447,1.447,0,1,0,1.447,1.447A1.448,1.448,0,0,0,22.617,2.17Z" transform="translate(8.487)" fill="#fff"/>
      <path id="Path_12903" data-name="Path 12903" d="M22.617,26.233a3.617,3.617,0,1,1,3.617-3.617A3.621,3.621,0,0,1,22.617,26.233Zm0-5.063a1.447,1.447,0,1,0,1.447,1.447A1.448,1.448,0,0,0,22.617,21.17Z" transform="translate(8.487 8.487)" fill="#fff"/>
    </g>
    <rect id="Rectangle_1190" data-name="Rectangle 1190" width="42" height="42" transform="translate(10183 7562)" fill="none"/>
  </g>
</svg>
