<svg xmlns="http://www.w3.org/2000/svg" width="12.895" height="8.6" viewBox="0 0 12.895 8.6">
  <path id="Icon_ionic-ios-arrow-round-forward" data-name="Icon ionic-ios-arrow-round-forward" d="M16.1,11.416a.585.585,0,0,0,0,.824l2.723,2.728H8.453a.582.582,0,0,0,0,1.164h10.36L16.089,18.86a.589.589,0,0,0,0,.824.58.58,0,0,0,.82,0L20.6,15.962h0a.654.654,0,0,0,.121-.184.556.556,0,0,0,.045-.224.584.584,0,0,0-.166-.408L16.913,11.43A.571.571,0,0,0,16.1,11.416Z" transform="translate(-7.875 -11.252)" fill="#d8b153"/>
</svg>
