<svg xmlns="http://www.w3.org/2000/svg" width="42" height="42" viewBox="0 0 42 42">
  <g id="avatar" transform="translate(-10380 -7562)">
    <g id="shoes" transform="translate(10384.001 7537.25)">
      <path id="Path_12905" data-name="Path 12905" d="M33.16,60.8H25.452A15.536,15.536,0,0,1,14.79,56.771c-4.645-4.323-3.023-8.355-4.783-10.452a19.529,19.529,0,0,0-4.1,11.966V59.8a1,1,0,0,1-1,1h-2a1,1,0,0,1-1-1V52.326a26.994,26.994,0,0,0-1.426-8.54C-.951,39.5.978,34.266,4.2,31.044a1,1,0,0,1,1.417,0c9.112,9.112,11.577,16.565,12.5,19.371a3.339,3.339,0,0,0,5.99.818,1,1,0,0,1,1.425-.253l8.215,6.011a1,1,0,0,1,.41.808v2A1,1,0,0,1,33.16,60.8Zm-22.7-16.75c3.94,2.72,1.031,6.91,5.694,11.249a13.541,13.541,0,0,0,9.3,3.5h6.705v-.494l-7.04-5.151a5.331,5.331,0,0,1-8.9-2.112c-.862-2.607-3.111-9.408-11.289-17.842C2.7,35.816,1.3,39.92,2.378,43.153a28.994,28.994,0,0,1,1.529,9.174V58.8A21.539,21.539,0,0,1,9.133,44.225a1,1,0,0,1,1.328-.17Z" fill="#fff"/>
    </g>
    <rect id="Rectangle_1192" data-name="Rectangle 1192" width="42" height="42" transform="translate(10380 7562)" fill="none"/>
  </g>
</svg>
