<svg xmlns="http://www.w3.org/2000/svg" width="41" height="41" viewBox="0 0 41 41">
  <g id="cart" transform="translate(-8383 -1574)">
    <rect id="Rectangle_1188" data-name="Rectangle 1188" width="41" height="41" rx="4" transform="translate(8383 1574)" fill="#07113e"/>
    <g id="cart-2" data-name="cart" transform="translate(8395 1587)">
      <path id="Path_12910" data-name="Path 12910" d="M11.542,29.115a.99.99,0,1,1-.99-.99A.99.99,0,0,1,11.542,29.115Z" transform="translate(-5.938 -14.265)" fill="#fff"/>
      <path id="Path_12911" data-name="Path 12911" d="M27.327,29.115a.99.99,0,1,1-.99-.99.99.99,0,0,1,.99.99Z" transform="translate(-12.465 -14.265)" fill="#fff"/>
      <path id="Path_12912" data-name="Path 12912" d="M20.524,7.309a.242.242,0,0,0-.214-.173L6.879,5.837a.413.413,0,0,1-.309-.194,4.2,4.2,0,0,0-.5-.767c-.318-.388-.915-.375-2.012-.384a.6.6,0,0,0-.672.581.589.589,0,0,0,.643.581A5.479,5.479,0,0,1,5.1,5.734c.194.058.351.375.408.652a.015.015,0,0,0,0,.012c.008.049.082.421.082.425l1.649,8.726a3.207,3.207,0,0,0,.6,1.472,1.646,1.646,0,0,0,1.357.668h9.757a.586.586,0,0,0,.594-.553.575.575,0,0,0-.577-.6H9.188a.479.479,0,0,1-.342-.115,1.85,1.85,0,0,1-.474-1.072l-.177-.977a.023.023,0,0,1,.016-.025l11.452-1.938a.241.241,0,0,0,.2-.214l.66-4.775A.235.235,0,0,0,20.524,7.309Z" transform="translate(-3.382 -4.493)" fill="#fff"/>
    </g>
  </g>
</svg>
