<svg xmlns="http://www.w3.org/2000/svg" width="41" height="41" viewBox="0 0 41 41">
  <g id="eye" transform="translate(-8251 -1574)">
    <rect id="Rectangle_1186" data-name="Rectangle 1186" width="41" height="41" rx="4" transform="translate(8251 1574)" fill="#07113e"/>
    <path id="eye-2" data-name="eye" d="M23.472,11.773A13.15,13.15,0,0,0,11.807,4.5,13.152,13.152,0,0,0,.143,11.773a1.326,1.326,0,0,0,0,1.2,13.15,13.15,0,0,0,11.665,7.273A13.152,13.152,0,0,0,23.472,12.97,1.326,1.326,0,0,0,23.472,11.773Zm-11.665,6.5a5.9,5.9,0,1,1,5.9-5.9A5.9,5.9,0,0,1,11.807,18.275Zm0-9.84a3.907,3.907,0,0,0-1.038.155,1.962,1.962,0,0,1-2.743,2.743,3.927,3.927,0,1,0,3.78-2.9Z" transform="translate(8259.489 1582.001)" fill="#fff"/>
  </g>
</svg>
