<svg xmlns="http://www.w3.org/2000/svg" width="42" height="42" viewBox="0 0 42 42">
  <g id="mission" transform="translate(-10095 -7562)">
    <path id="mission-2" data-name="mission" d="M37.256,34.7,24.242,16.155a1.83,1.83,0,0,0-.4-.413v-4h9.177a1.1,1.1,0,0,0,.935-1.683L32.031,6.975l1.922-3.089A1.1,1.1,0,0,0,33.018,2.2H23.841V1.1a1.1,1.1,0,1,0-2.2,0V15.742a1.831,1.831,0,0,0-.4.413l-6.125,8.729-2.362-3.275a1.835,1.835,0,0,0-2.978,0L.348,34.681A1.835,1.835,0,0,0,1.837,37.59H35.753a1.835,1.835,0,0,0,1.5-2.89Zm-26.823.687,7.084-10.1,1.815,1.691a1.1,1.1,0,0,0,1.5,0l1.906-1.776,1.907,1.776a1.1,1.1,0,0,0,1.5,0l1.815-1.691,7.084,10.1ZM8.224,34.7a1.838,1.838,0,0,0-.3.687H2.554L11.262,23.31l2.511,3.483ZM22.74,17.849l3.946,5.623-1.289,1.2L23.49,22.9a1.1,1.1,0,0,0-1.5,0l-1.906,1.776-1.288-1.2Zm8.3-13.444L29.8,6.393a1.1,1.1,0,0,0,0,1.164l1.237,1.988H23.841V4.405Z" transform="translate(10097 7564)" fill="#fff"/>
    <rect id="Rectangle_1189" data-name="Rectangle 1189" width="42" height="42" transform="translate(10095 7562)" fill="none"/>
  </g>
</svg>
