<svg xmlns="http://www.w3.org/2000/svg" width="42" height="42" viewBox="0 0 42 42">
  <g id="participate" transform="translate(-10291 -7562)">
    <g id="participation" transform="translate(10300 7564)">
      <path id="Path_12904" data-name="Path 12904" d="M112.161,8.872a3.331,3.331,0,0,0-1.2.188V5.544a3.325,3.325,0,0,0-4.553-3.091,3.326,3.326,0,0,0-6.419,0,3.325,3.325,0,0,0-4.553,3.091V9.06a3.33,3.33,0,0,0-1.2-.188A3.373,3.373,0,0,0,91,12.244V37.85h22.178V32.519l1.5-3.761a9.936,9.936,0,0,0,.714-3.706V12.244a3.373,3.373,0,0,0-3.234-3.371ZM93.218,35.632V33.414H110.96v2.218Zm19.96-10.58a7.728,7.728,0,0,1-.555,2.883l-1.3,3.262h-18.1V12.244a1.14,1.14,0,0,1,1.077-1.155A1.109,1.109,0,0,1,95.436,12.2v5.138h2.218V5.544a1.109,1.109,0,1,1,2.218,0V17.335h2.218V3.327a1.109,1.109,0,1,1,2.218,0V17.335h2.218V5.544a1.109,1.109,0,1,1,2.218,0V19.06a9.995,9.995,0,0,0-8.871,9.919h2.218a7.771,7.771,0,0,1,7.762-7.762h1.109V12.2a1.109,1.109,0,0,1,1.141-1.108,1.14,1.14,0,0,1,1.077,1.155Z" transform="translate(-91)" fill="#fff"/>
    </g>
    <rect id="Rectangle_1191" data-name="Rectangle 1191" width="42" height="42" transform="translate(10291 7562)" fill="none"/>
  </g>
</svg>
